<svg xmlns="http://www.w3.org/2000/svg" viewBox="0 0 650 320" width="650" height="320">
  <rect width="650" height="320" fill="#ffffff" rx="12"/>
  <text x="325" y="30" fill="#111111" font-family="monospace" font-size="15" text-anchor="middle" font-weight="bold">Creating a Bell State: Entanglement Circuit</text>
  <line x1="80" y1="100" x2="580" y2="100" stroke="#222222" stroke-width="1.5" stroke-opacity="0.25"/>
  <line x1="80" y1="200" x2="580" y2="200" stroke="#222222" stroke-width="1.5" stroke-opacity="0.25"/>
  <text x="50" y="105" fill="#777777" font-family="monospace" font-size="14">|0&#x27E9;</text>
  <text x="50" y="205" fill="#777777" font-family="monospace" font-size="14">|0&#x27E9;</text>
  <rect x="140" y="80" width="50" height="40" rx="6" fill="#cccccc" fill-opacity="0.1" stroke="#222222" stroke-width="2"/>
  <text x="165" y="106" fill="#222222" font-family="monospace" font-size="18" text-anchor="middle" font-weight="bold">H</text>
  <circle cx="270" cy="100" r="6" fill="#222222"/>
  <line x1="270" y1="106" x2="270" y2="200" stroke="#222222" stroke-width="2"/>
  <circle cx="270" cy="200" r="16" fill="none" stroke="#333333" stroke-width="2"/>
  <line x1="270" y1="184" x2="270" y2="216" stroke="#333333" stroke-width="2.5"/>
  <text x="295" y="135" fill="#777777" font-family="monospace" font-size="10">CNOT</text>
  <rect x="420" y="82" width="50" height="36" rx="4" fill="#aaaaaa" fill-opacity="0.08" stroke="#111111" stroke-width="1.5"/>
  <path d="M 432,98 Q 445,88 458,98" fill="none" stroke="#111111" stroke-width="1.5"/>
  <line x1="445" y1="98" x2="450" y2="108" stroke="#111111" stroke-width="1.5"/>
  <text x="445" y="80" fill="#111111" font-family="monospace" font-size="9" text-anchor="middle">M</text>
  <rect x="420" y="182" width="50" height="36" rx="4" fill="#aaaaaa" fill-opacity="0.08" stroke="#111111" stroke-width="1.5"/>
  <path d="M 432,198 Q 445,188 458,198" fill="none" stroke="#111111" stroke-width="1.5"/>
  <line x1="445" y1="198" x2="450" y2="208" stroke="#111111" stroke-width="1.5"/>
  <text x="445" y="180" fill="#111111" font-family="monospace" font-size="9" text-anchor="middle">M</text>
  <text x="520" y="105" fill="#000000" font-family="monospace" font-size="12">c&#x2080;</text>
  <text x="520" y="205" fill="#000000" font-family="monospace" font-size="12">c&#x2081;</text>
  <text x="165" y="265" fill="#777777" font-family="monospace" font-size="11" text-anchor="middle">Step 1:</text>
  <text x="165" y="280" fill="#222222" font-family="monospace" font-size="11" text-anchor="middle">Superposition</text>
  <text x="270" y="265" fill="#777777" font-family="monospace" font-size="11" text-anchor="middle">Step 2:</text>
  <text x="270" y="280" fill="#333333" font-family="monospace" font-size="11" text-anchor="middle">Entanglement</text>
  <text x="445" y="265" fill="#777777" font-family="monospace" font-size="11" text-anchor="middle">Step 3:</text>
  <text x="445" y="280" fill="#111111" font-family="monospace" font-size="11" text-anchor="middle">Measurement</text>
  <text x="325" y="305" fill="#666666" font-family="monospace" font-size="12" text-anchor="middle">Result: (|00&#x27E9; + |11&#x27E9;) / &#x221A;2</text>
</svg>